<svg width="21" height="16" viewBox="0 0 21 16" fill="none" xmlns="http://www.w3.org/2000/svg">
<g clip-path="url(#clip0_1_1009)">
<path d="M2.81055 3.47949H3.50855V4.17342H2.81055V3.47949Z" fill="white"/>
<path d="M17.8184 1.74497H4.85986C4.78243 1.44727 4.60793 1.18349 4.36348 0.995133C4.11902 0.806627 3.81848 0.704243 3.5092 0.704088H1.20922L0.61591 0.110839C0.515573 0.0123252 0.365534 -0.0164827 0.235589 0.0378856C0.105181 0.0911714 0.0199571 0.217097 0.0191754 0.357124V0.742191C0.0191754 1.19217 0.198974 1.62384 0.518987 1.94201C0.839001 2.26019 1.27323 2.4389 1.72586 2.4389H2.14107L0.273928 5.08979C0.116721 5.30834 0.0268215 5.56781 0.0149793 5.83638C0.00329388 6.10481 0.0701337 6.37106 0.207709 6.60247C0.471798 7.0402 0.950746 7.30477 1.46412 7.2964H3.81648H3.81632C3.94626 7.29547 4.06592 7.36626 4.127 7.48026L6.30127 10.5301V15.6236C6.30127 15.7156 6.33804 15.8039 6.40347 15.8689C6.46891 15.934 6.55772 15.9705 6.65027 15.9705H8.04628C8.21377 15.9742 8.36023 15.8592 8.39528 15.6964L9.37592 11.1129H17.3264L18.1396 11.9248L17.4694 15.561C17.4503 15.662 17.4771 15.7661 17.5427 15.8455C17.6107 15.9267 17.7122 15.9727 17.8184 15.9704H19.2145C19.3709 15.9784 19.5136 15.8821 19.5635 15.7345L20.9595 11.5709C20.988 11.4936 20.988 11.4087 20.9595 11.3314L20.4289 10.013C20.3394 9.81393 20.3149 9.59182 20.3591 9.37805L20.9595 7.03265C20.9629 7.00492 20.9629 6.97704 20.9595 6.94931V4.86753C20.9595 4.0393 20.6285 3.24501 20.0395 2.65949C19.4505 2.07382 18.6515 1.74485 17.8184 1.74485V1.74497ZM20.2615 5.21461V5.90854C20.2615 6.15653 20.1284 6.38561 19.9125 6.50952C19.6965 6.63344 19.4304 6.63344 19.2145 6.50952C18.9985 6.38561 18.8654 6.15652 18.8654 5.90854V5.56158C18.8654 5.19355 18.7184 4.84053 18.4566 4.58016C18.1947 4.31994 17.8396 4.17372 17.4694 4.17372H16.4224V4.86765H17.4694C17.6545 4.86765 17.8322 4.94076 17.963 5.07087C18.0939 5.20098 18.1674 5.37756 18.1674 5.56158V5.90854C18.1674 6.27657 18.3145 6.62959 18.5763 6.88995C18.8382 7.15018 19.1933 7.2964 19.5635 7.2964C19.7875 7.29407 20.0078 7.23815 20.2057 7.13329L19.6822 9.21508C19.5934 9.56901 19.6189 9.94168 19.7554 10.2803L20.2406 11.46L18.9632 15.2766H18.2373L18.8655 11.8693C18.887 11.7573 18.8518 11.6418 18.7712 11.5606L16.9389 9.74245C16.6094 9.41764 16.4235 8.97556 16.4225 8.51412V7.6433H15.7244V8.51412C15.7151 9.16189 15.9664 9.78643 16.4225 10.2489L16.611 10.4364H9.09326C8.92577 10.4326 8.77931 10.5477 8.74425 10.7105L7.76362 15.2766H6.99924V10.4191C6.99986 10.3472 6.97789 10.2769 6.93645 10.2179L4.70985 7.0952C4.51821 6.78789 4.17997 6.60124 3.81633 6.60247H1.46413C1.33465 6.60681 1.20643 6.57691 1.09238 6.51604C0.978482 6.45501 0.882664 6.36517 0.81489 6.2555C0.745867 6.1381 0.71206 6.00349 0.717668 5.86749C0.723276 5.73165 0.767836 5.60014 0.846364 5.48877L3.09745 2.28973C3.16756 2.18672 3.17676 2.05444 3.12191 1.94276C3.06473 1.82334 2.9443 1.74667 2.81124 1.74496H1.7259C1.42286 1.74573 1.13554 1.61067 0.944052 1.37724C0.983159 1.39134 1.0246 1.39831 1.0662 1.398H3.50922C3.69432 1.398 3.87194 1.47111 4.00281 1.60122C4.13369 1.73133 4.20723 1.90791 4.20723 2.09193C4.20723 2.18393 4.244 2.27222 4.30944 2.33728C4.37487 2.40233 4.46368 2.43889 4.55623 2.43889H17.8183C18.4663 2.43889 19.0877 2.69478 19.5458 3.15031C20.004 3.60568 20.2614 4.2234 20.2614 4.86764L20.2615 5.21461Z" fill="white"/>
</g>
<defs>
<clipPath id="clip0_1_1009">
<rect width="21" height="16" fill="white"/>
</clipPath>
</defs>
</svg>
