<svg width="16" height="19" viewBox="0 0 16 19" fill="none" xmlns="http://www.w3.org/2000/svg">
<g clip-path="url(#clip0_1_1196)">
<path d="M0.0136719 3.28968L1.95354 4.34002C1.83283 4.48123 1.74707 4.64799 1.70311 4.82696C1.64927 5.09492 1.72502 5.37215 1.90844 5.57766C2.07654 5.80407 2.34313 5.94037 2.62879 5.94583H2.66788C1.68563 7.45771 1.32395 9.27826 1.65586 11.0409C2.14026 13.4698 3.76812 14.331 4.65484 14.4618C4.90212 14.5081 5.15772 14.4844 5.3918 14.3934C5.57722 14.8816 5.94364 15.2833 6.41814 15.5183C6.63249 15.6121 6.8649 15.6601 7.09957 15.6591C7.24275 15.6587 7.38536 15.6418 7.52455 15.6088C7.83855 16.122 8.32924 16.6029 9.08254 16.6794V17.9471C8.41215 17.9695 7.75492 18.1357 7.15715 18.4341L7.07912 18.4704L7.13653 18.6716V18.8729V18.8728C7.20956 18.8679 7.28015 18.845 7.34186 18.8064C8.74993 18.1484 9.93437 18.2027 10.8644 18.9915L11.1312 18.6857H11.1311C10.6723 18.2957 10.1043 18.0504 9.50123 17.9813V16.6753C10.0488 16.6774 10.5786 16.486 10.9936 16.136H11.1374H11.1373C12.0213 16.1343 12.8509 15.7176 13.3685 15.0152C14.1383 14.0453 14.4092 12.7031 14.2983 12.025C16.2094 10.8517 15.8195 9.45726 15.6553 9.06073C15.8616 8.71248 15.9785 8.32032 15.9959 7.91786V7.85946L15.9672 7.80711C15.5012 6.98609 14.4276 6.63197 12.9477 6.81304C11.8044 6.95186 10.4599 7.43275 9.95069 7.95002C9.2097 7.06263 7.82612 7.09882 7.22061 7.16325C7.27187 6.65611 7.20629 5.51309 6.17579 3.54112C6.15732 3.50687 6.13885 3.47669 6.12038 3.44455H6.12052C6.66019 3.31794 7.09661 2.93026 7.27831 2.41623C7.36852 2.1536 7.37768 1.87061 7.30466 1.60294C7.23149 1.33512 7.07957 1.09455 6.86765 0.911069C6.65746 0.692096 6.34847 0.592157 6.04665 0.645357C5.86266 0.687187 5.69342 0.776038 5.55609 0.902931C5.5475 0.749651 5.50326 0.6003 5.42666 0.466263C5.26471 0.210795 4.98423 0.0502212 4.6775 0.0377163C4.35691 -0.015764 4.02943 0.0827737 3.79477 0.303289C3.69626 0.400562 3.61751 0.515241 3.56281 0.641433C3.5084 0.572232 3.44325 0.511874 3.36994 0.462325C3.09904 0.300903 2.7637 0.283496 2.47706 0.416002C2.23107 0.485484 2.04104 0.677787 1.97821 0.921052C1.84892 1.45629 2.38872 2.17072 2.67408 2.50271C2.60635 2.55296 2.55294 2.59732 2.52015 2.6254L0.0136719 3.28968ZM6.78756 7.33044L6.64795 7.67447L7.01736 7.60401C7.03784 7.60401 9.09469 7.2197 9.78857 8.40886L10.037 8.83543L10.1663 8.36056C10.2422 8.07688 11.4965 7.39667 13.0114 7.21151C13.7523 7.12097 15.064 7.09879 15.5916 7.94998V7.95026C15.5745 8.39789 15.393 8.82446 15.0801 9.15095C14.7674 9.47759 14.3446 9.68224 13.8899 9.72715L13.9229 10.1297L13.9227 10.1296C14.4651 10.0587 14.9693 9.81726 15.3596 9.44137C15.4766 9.91832 15.4684 10.8862 13.9658 11.7576L13.8262 11.838L13.8735 11.9889C14.0049 12.4135 13.8345 13.7798 13.0525 14.7698V14.77C12.6461 15.3317 12.0044 15.6855 11.3035 15.7339C11.5402 15.2573 11.608 14.717 11.4965 14.1984L11.0983 14.2911C11.0983 14.2911 11.3036 15.1321 10.8314 15.7117C10.5337 16.0839 10.0104 16.2771 9.30421 16.2831C7.82209 16.2831 7.44454 14.2305 7.44036 14.2105L7.02986 14.2788V14.279C7.09429 14.6076 7.19767 14.9276 7.33771 15.2327C7.08585 15.2761 6.82655 15.2452 6.59258 15.1442C6.19637 14.967 5.88638 14.5788 5.67704 13.9871L5.52097 13.5485L5.30133 13.961C5.26439 14.0294 5.05906 14.1059 4.71844 14.0576C3.9405 13.9489 2.50567 13.1721 2.06636 10.9646C1.48962 8.07292 3.16242 5.90766 3.33496 5.69457C3.54386 5.55392 3.73245 5.38605 3.89538 5.19556L3.57522 4.94402C3.43762 5.11106 2.99849 5.54775 2.61859 5.54775C2.45737 5.54213 2.3086 5.46128 2.21824 5.33032C2.11314 5.21887 2.06818 5.06503 2.09711 4.91582C2.18331 4.5134 2.77035 4.14914 2.98999 4.03853L2.80313 3.68032H2.80328C2.60526 3.78279 2.41869 3.9056 2.247 4.04652L1.09551 3.42274L2.72322 2.99211L2.76016 2.9559C2.76016 2.9559 3.49913 2.26963 4.33663 2.40453C4.90321 2.49703 5.39993 2.94576 5.81457 3.7366C7.14475 6.27611 6.78751 7.32254 6.78751 7.3307L6.78756 7.33044ZM2.37427 1.01399C2.38859 0.951668 2.43168 0.859027 2.61439 0.794597C2.77776 0.71122 2.97235 0.71122 3.13574 0.794597C3.34106 0.929489 3.41079 1.26551 3.42726 1.44662V1.53308L3.83776 1.50894V1.41237C3.83776 1.19901 3.86854 0.792651 4.08618 0.581252V0.581392C4.23639 0.453098 4.43913 0.401023 4.63429 0.440464C4.81241 0.439621 4.97936 0.525526 5.07972 0.669822C5.25627 0.963609 5.07972 1.49881 5.00584 1.67597L5.38141 1.83697C5.46346 1.65379 5.77344 1.11858 6.12452 1.04614C6.29634 1.02382 6.46816 1.08726 6.58227 1.21514C6.73648 1.3454 6.84774 1.51777 6.90186 1.7102C6.95599 1.90264 6.9504 2.10644 6.88597 2.29581C6.81037 2.50398 6.67792 2.68771 6.5031 2.82709C6.32828 2.96662 6.11778 3.05631 5.89455 3.08663C5.46957 2.46286 4.96872 2.09662 4.39814 2.00201C3.91763 1.93828 3.4292 2.03626 3.01254 2.27965C2.69238 1.91345 2.2982 1.3319 2.37422 1.01396L2.37427 1.01399Z" fill="#B9BCFF"/>
<path d="M5.54494 8.35261L5.33961 8.33647L5.13429 8.31836C5.08789 9.36648 5.51444 10.3815 6.30025 11.0934C7.17668 11.8722 8.46375 12.2625 10.149 12.2625C11.061 12.2524 11.9701 12.1601 12.8648 11.9868L13.1891 11.9265L12.9838 11.6669C12.368 10.8621 12.1505 9.57618 12.1463 9.5641L11.7358 9.62853V9.62839C11.8572 10.3052 12.0879 10.9587 12.4194 11.5642C9.62771 11.3629 8.5746 9.71287 8.56434 9.6948L8.38779 9.7974L8.22556 9.89805C8.26666 9.96641 9.10415 11.2967 11.2738 11.7976C9.13908 11.9989 7.56247 11.6608 6.58121 10.7915C5.89565 10.1614 5.51836 9.27355 5.54471 8.35261L5.54494 8.35261Z" fill="#B9BCFF"/>
<path d="M4.05013 3.30588C4.05013 3.47713 3.90866 3.61581 3.73412 3.61581C3.55944 3.61581 3.41797 3.47713 3.41797 3.30588C3.41797 3.13478 3.55944 2.99609 3.73412 2.99609C3.90866 2.99609 4.05013 3.13478 4.05013 3.30588Z" fill="#B9BCFF"/>
</g>
<defs>
<clipPath id="clip0_1_1196">
<rect width="16" height="19" fill="white"/>
</clipPath>
</defs>
</svg>
