<svg width="26" height="26" viewBox="0 0 26 26" fill="none" xmlns="http://www.w3.org/2000/svg">
<path d="M13.6483 13.001L18.3341 8.31519C18.5132 8.13544 18.5134 7.84466 18.3341 7.66509C18.1537 7.48534 17.8631 7.48534 17.6836 7.66509L12.998 12.3507L8.31226 7.66509C8.13352 7.48534 7.84173 7.48534 7.66216 7.66509C7.48241 7.84443 7.48241 8.13542 7.66216 8.31519L12.3477 13.001L7.66257 17.6861C7.48282 17.8659 7.48282 18.1567 7.66257 18.3366C7.75244 18.4261 7.86993 18.4714 7.98761 18.4712C8.1055 18.4714 8.22298 18.4261 8.31265 18.3366L12.998 13.6512L17.6836 18.3368C17.7735 18.4263 17.8913 18.4716 18.0088 18.4716C18.1261 18.4716 18.244 18.4263 18.3341 18.3368C18.5134 18.1568 18.5134 17.8659 18.3339 17.6863L13.6483 13.001Z" fill="white"/>
<path d="M13 0C5.83194 0 0 5.83194 0 13C0 20.1681 5.83194 26 13 26C20.1681 26 26 20.1681 26 13C26 5.83194 20.1681 0 13 0ZM13 25.0802C6.33905 25.0802 0.919802 19.661 0.919802 13C0.919802 6.33853 6.33853 0.919286 13 0.919286C19.6615 0.919286 25.0802 6.33853 25.0802 13C25.0802 19.661 19.6615 25.0797 13 25.0797V25.0802Z" fill="white"/>
</svg>
