<svg width="18" height="21" viewBox="0 0 18 21" fill="none" xmlns="http://www.w3.org/2000/svg">
<path d="M14.8647 10.2143C13.6421 9.40757 12.913 8.03931 12.9192 6.57785C12.9192 6.4072 12.7796 6.26758 12.6089 6.26758H9.30464C9.13398 6.26758 8.99436 6.4072 8.99436 6.57785C8.99436 7.12082 8.86402 7.65453 8.61274 8.13547H5.49434C5.32369 8.13547 5.18407 8.2751 5.18407 8.44575C5.1903 9.91029 4.45494 11.2785 3.23238 12.0822C1.91993 12.9479 1.16602 14.2045 1.16602 15.5325C1.16602 18.0457 3.84687 20.0905 7.14175 20.0905C9.17102 20.0905 10.9643 19.3148 12.0473 18.1295H12.1094C14.9049 17.6889 16.9341 15.818 16.9341 13.6524C16.9342 12.3305 16.1802 11.0739 14.8646 10.2144L14.8647 10.2143ZM7.13863 19.4637C4.18796 19.4637 1.78628 17.6982 1.78628 15.5262C1.78628 14.4123 2.43786 13.345 3.57035 12.5971C4.87351 11.7377 5.69271 10.3166 5.78579 8.75893H6.63602C6.59571 9.49111 6.39403 11.9082 5.44449 12.861C5.32342 12.9851 5.32342 13.1837 5.44753 13.3046C5.57165 13.4257 5.77028 13.4257 5.89121 13.3016C7.02374 12.1691 7.23164 9.51941 7.26891 8.75915H8.48827C8.58135 10.3168 9.40055 11.7378 10.7037 12.5942C11.8393 13.3419 12.4878 14.4093 12.4878 15.5232C12.4908 17.6953 10.0894 19.4639 7.13863 19.4639L7.13863 19.4637ZM12.5871 17.3943V17.385C12.9284 16.8203 13.1083 16.1749 13.1115 15.5141C13.1115 14.1861 12.3606 12.9295 11.0451 12.0638C9.85054 11.2756 9.12141 9.94764 9.10287 8.5142C9.38516 8.01471 9.5558 7.45926 9.60236 6.88828H12.3048C12.3979 8.4459 13.2201 9.86693 14.5233 10.7233C15.6588 11.471 16.3073 12.5384 16.3073 13.6524C16.3104 15.3621 14.7745 16.8669 12.5872 17.3945L12.5871 17.3943Z" fill="white"/>
<path d="M9.9898 15.5458C8.88529 14.3047 8.55948 12.5331 8.55629 12.5144C8.52526 12.3438 8.36389 12.2259 8.1902 12.2569C8.01955 12.2879 7.90167 12.4493 7.9327 12.623C7.94821 12.7006 8.2895 14.587 9.52759 15.9615C9.63618 16.0949 9.83163 16.1166 9.96502 16.008C10.0984 15.8994 10.1202 15.704 10.0116 15.5706C10.0053 15.5613 9.9991 15.552 9.98982 15.5458L9.9898 15.5458Z" fill="white"/>
<path d="M13.3918 11.5175C11.6636 10.1306 11.8094 7.84387 11.8094 7.82224C11.8219 7.65159 11.6946 7.4995 11.5209 7.48717C11.3503 7.4747 11.1982 7.602 11.1858 7.7757C11.1858 7.88125 11.0059 10.413 13.001 12.0079C13.1344 12.1165 13.333 12.0947 13.4384 11.9613C13.5502 11.8216 13.5284 11.6261 13.3919 11.5175L13.3918 11.5175Z" fill="white"/>
<path d="M3.87843 7.32892C4.04908 7.32892 4.19175 7.1893 4.19175 7.01864C4.19175 6.94731 4.16695 6.87902 4.12346 6.82625C2.57208 4.86527 4.28788 3.34492 4.3624 3.27988C4.49274 3.16824 4.50826 2.97265 4.39648 2.83925C4.28483 2.70891 4.08925 2.6934 3.95585 2.80518C3.9341 2.82374 1.70332 4.7724 3.63311 7.2111C3.69225 7.28548 3.78229 7.32897 3.87842 7.32897L3.87843 7.32892Z" fill="white"/>
<path d="M6.00284 3.14971C5.50639 3.59339 4.89208 4.13955 5.01619 5.20682C5.18061 6.59377 6.38446 6.96915 7.00196 6.97235C7.17261 6.97235 7.31224 6.83272 7.31224 6.66207C7.31224 6.49142 7.17261 6.35179 7.00196 6.35179C6.95237 6.35179 5.77334 6.33005 5.63051 5.13548C5.54366 4.39082 5.94701 4.03097 6.41244 3.61513C6.82828 3.23656 7.31848 2.80536 7.31848 2.06999C7.31848 0.884701 6.17975 0.406982 5.57788 0.329396C5.40723 0.304601 5.24586 0.425524 5.22411 0.599364C5.19932 0.770016 5.32024 0.931387 5.49408 0.953135C5.54367 0.953135 6.69486 1.13002 6.69486 2.07637C6.70096 2.51366 6.43418 2.77117 6.00283 3.14975L6.00284 3.14971Z" fill="white"/>
</svg>
