<svg width="17" height="21" viewBox="0 0 17 21" fill="none" xmlns="http://www.w3.org/2000/svg">
<path d="M13.7087 11.12C12.4875 10.3142 11.7592 8.94748 11.7654 7.48766C11.7654 7.3172 11.626 7.17773 11.4555 7.17773H8.1549C7.98444 7.17773 7.84497 7.3172 7.84497 7.48766C7.84497 8.03002 7.71478 8.56313 7.46378 9.04354H4.34888C4.17841 9.04354 4.03895 9.18301 4.03895 9.35347C4.04517 10.8164 3.31063 12.1831 2.08944 12.9858C0.778464 13.8506 0.0253906 15.1058 0.0253906 16.4323C0.0253906 18.9427 2.70324 20.9852 5.99444 20.9852C8.02144 20.9852 9.81275 20.2104 10.8945 19.0264H10.9565C13.7489 18.5863 15.7758 16.7174 15.7758 14.5542C15.7759 13.2339 15.0228 11.9787 13.7087 11.1201L13.7087 11.12ZM5.99132 20.3591C3.04395 20.3591 0.644964 18.5955 0.644964 16.426C0.644964 15.3133 1.29581 14.2472 2.42704 13.5002C3.72873 12.6417 4.54702 11.2222 4.64 9.6663H5.48927C5.44901 10.3977 5.24755 12.8121 4.29907 13.7637C4.17815 13.8877 4.17815 14.0861 4.30212 14.2069C4.42609 14.3278 4.6245 14.3278 4.7453 14.2039C5.87655 13.0726 6.08422 10.4259 6.12145 9.66652H7.33945C7.43243 11.2224 8.25071 12.6418 9.55241 13.4972C10.6867 14.2441 11.3345 15.3103 11.3345 16.423C11.3375 18.5927 8.93875 20.3593 5.99132 20.3593L5.99132 20.3591ZM11.4337 18.292V18.2827C11.7746 17.7186 11.9543 17.074 11.9575 16.4139C11.9575 15.0874 11.2074 13.8322 9.89344 12.9674C8.7002 12.1801 7.97189 10.8537 7.95336 9.42184C8.23534 8.92291 8.40579 8.36808 8.45229 7.79774H11.1517C11.2447 9.35362 12.066 10.7731 13.3677 11.6285C14.502 12.3753 15.1498 13.4416 15.1498 14.5543C15.1528 16.262 13.6186 17.7652 11.4338 18.2922L11.4337 18.292Z" fill="#B9BCFF"/>
<path d="M8.83905 16.4445C7.73578 15.2048 7.41034 13.4351 7.40715 13.4165C7.37615 13.246 7.21496 13.1283 7.04147 13.1593C6.87101 13.1902 6.75326 13.3514 6.78425 13.5249C6.79975 13.6024 7.14065 15.4868 8.37736 16.8597C8.48583 16.9929 8.68106 17.0147 8.8143 16.9062C8.94755 16.7977 8.96927 16.6025 8.86079 16.4692C8.85457 16.46 8.84834 16.4507 8.83907 16.4445L8.83905 16.4445Z" fill="#B9BCFF"/>
<path d="M12.237 12.4222C10.5107 11.0368 10.6564 8.75265 10.6564 8.73104C10.6688 8.56058 10.5417 8.40866 10.3682 8.39635C10.1977 8.3839 10.0458 8.51105 10.0335 8.68455C10.0335 8.78999 9.85376 11.3189 11.8466 12.912C11.9798 13.0205 12.1782 12.9987 12.2835 12.8655C12.3952 12.7259 12.3735 12.5307 12.237 12.4222L12.237 12.4222Z" fill="#B9BCFF"/>
<g clip-path="url(#clip0_1_1105)">
<mask id="path-4-outside-1_1_1105" maskUnits="userSpaceOnUse" x="-0.414062" y="0.246094" width="8" height="9" fill="black">
<rect fill="white" x="-0.414062" y="0.246094" width="8" height="9"/>
<path d="M6.66857 2.99945C6.63445 2.9406 6.55911 2.9205 6.50032 2.95445L5.78379 3.36868L5.8561 2.60373C5.86252 2.53612 5.81282 2.476 5.74503 2.46959C5.67822 2.46295 5.6173 2.51276 5.61089 2.58066L5.52215 3.51989L5.04254 3.79717L5.15384 2.89767C5.16231 2.83023 5.11428 2.76874 5.04683 2.76038C4.97927 2.75185 4.9179 2.79994 4.90954 2.86738L4.7754 3.95164L3.76454 4.53602L3.76391 3.35988L4.63352 2.70342C4.68779 2.66248 4.69862 2.58531 4.65762 2.53097C4.61657 2.47664 4.53945 2.46587 4.48517 2.50686L3.76372 3.05151L3.76338 2.49822L4.53114 1.95255C4.58656 1.91321 4.5995 1.83632 4.56017 1.78084C4.52067 1.72542 4.44389 1.71248 4.38847 1.75182L3.76321 2.19621L3.7627 1.36913C3.7627 1.30117 3.70756 1.24609 3.6396 1.24609C3.57165 1.24609 3.51657 1.30134 3.51657 1.3693L3.51708 2.19689L2.89074 1.75187C2.83532 1.71254 2.75843 1.72553 2.71904 1.7809C2.67971 1.83638 2.6927 1.91321 2.74807 1.9526L3.51721 2.49914L3.51755 3.053L2.79421 2.50686C2.74005 2.46598 2.6627 2.47675 2.62176 2.53096C2.58083 2.58524 2.59165 2.66247 2.64587 2.70341L3.5177 3.36159L3.51833 4.5292L2.49936 3.94167L2.36556 2.8604C2.3572 2.79302 2.29571 2.74527 2.22826 2.7534C2.16088 2.76176 2.11284 2.82324 2.12126 2.89069L2.23221 3.78772L1.7529 3.51137L1.66432 2.57374C1.65791 2.50595 1.59642 2.45562 1.53018 2.46267C1.46245 2.46908 1.41276 2.52914 1.41911 2.59681L1.49125 3.36056L0.774611 2.94737C0.715984 2.91348 0.640411 2.93369 0.606454 2.9926C0.572561 3.05151 0.592771 3.1268 0.651683 3.16076L1.36872 3.57418L0.67018 3.89405C0.608289 3.92244 0.581152 3.99538 0.609435 4.05722C0.630219 4.1025 0.674875 4.12913 0.721479 4.12913C0.738655 4.12913 0.75606 4.12552 0.772606 4.11796L1.63054 3.72515L2.11025 4.00174L1.27551 4.35515C1.21287 4.3816 1.18367 4.45391 1.21018 4.51649C1.23005 4.56344 1.27562 4.59161 1.3236 4.59161C1.33952 4.59161 1.35583 4.58852 1.37152 4.58182L2.37757 4.15587L3.38912 4.7391L2.37087 5.32783L1.36758 4.90302C1.3046 4.87646 1.23263 4.90583 1.20624 4.96835C1.17973 5.03098 1.20893 5.10329 1.27156 5.12969L2.10402 5.48214L1.62504 5.75908L0.768528 5.36689C0.706867 5.33884 0.633698 5.36575 0.605355 5.42764C0.577015 5.48947 0.60421 5.56247 0.6661 5.59081L1.3635 5.91017L0.647442 6.32416C0.588586 6.35822 0.56849 6.43351 0.602441 6.49242C0.625285 6.53181 0.666621 6.55391 0.70916 6.55391C0.730114 6.55391 0.751355 6.54864 0.770706 6.53742L1.48723 6.12319L1.41492 6.88814C1.40851 6.95576 1.4582 7.01587 1.52599 7.02228C1.52994 7.02268 1.53378 7.02285 1.53773 7.02285C1.60053 7.02285 1.65412 6.97511 1.66008 6.91133L1.74882 5.97209L2.22831 5.69482L2.11707 6.59437C2.10871 6.66176 2.15663 6.72325 2.22419 6.73161C2.22929 6.73224 2.23438 6.73258 2.23948 6.73258C2.30068 6.73258 2.35381 6.68684 2.36143 6.62455L2.49545 5.54046L3.50643 4.95597L3.50706 6.13211L2.63745 6.78857C2.58317 6.82951 2.57235 6.90668 2.61335 6.96102C2.63756 6.99314 2.67443 7.01003 2.71165 7.01003C2.73741 7.01003 2.76352 7.0019 2.78568 6.98518L3.50712 6.44054L3.50747 6.99383L2.7397 7.5395C2.68428 7.57883 2.67134 7.65572 2.71068 7.7112C2.73472 7.74493 2.77262 7.76302 2.81116 7.76302C2.83589 7.76302 2.86074 7.75563 2.88238 7.74029L3.50763 7.2959L3.50815 8.12297C3.50815 8.19093 3.56328 8.24601 3.63124 8.24601C3.6992 8.24601 3.75428 8.19076 3.75428 8.1228L3.75376 7.29521L4.3801 7.74023C4.40174 7.75569 4.42665 7.76296 4.45133 7.76296C4.4898 7.76296 4.52782 7.74493 4.5518 7.71115C4.59114 7.65567 4.57814 7.57884 4.52278 7.53944L3.75364 6.99291L3.75329 6.43905L4.47663 6.98519C4.4989 7.0019 4.5249 7.01003 4.55066 7.01003C4.58793 7.01003 4.6248 6.99315 4.64896 6.96103C4.6899 6.90675 4.67908 6.82951 4.62486 6.78857L3.75302 6.1304L3.75239 4.96279L4.77149 5.55037L4.90517 6.6316C4.9129 6.69401 4.96592 6.73964 5.02712 6.73964C5.03221 6.73964 5.0372 6.73929 5.04241 6.73866C5.10985 6.7303 5.15783 6.66882 5.14953 6.60143L5.03863 5.70433L5.51795 5.98069L5.60652 6.91832C5.61253 6.9821 5.66617 7.02985 5.72887 7.02985C5.73282 7.02985 5.73665 7.02968 5.7406 7.02928C5.80833 7.02286 5.85803 6.96281 5.85167 6.89513L5.77953 6.13139L6.49617 6.54458C6.51547 6.55574 6.53665 6.56101 6.55755 6.56101C6.60015 6.56101 6.64143 6.53885 6.66433 6.49935C6.69822 6.44043 6.67801 6.36515 6.6191 6.33119L5.90206 5.91777L6.60054 5.5979C6.66243 5.5695 6.68957 5.49656 6.66129 5.43473C6.63289 5.37278 6.55995 5.34593 6.49811 5.37398L5.64024 5.7668L5.16053 5.49021L5.99515 5.13679C6.05779 5.11034 6.08699 5.03803 6.06048 4.97545C6.03397 4.91293 5.96206 4.88345 5.89914 4.91013L4.8932 5.33608L3.8816 4.75284L4.89984 4.16417L5.90314 4.58898C5.91883 4.59562 5.93514 4.59877 5.95106 4.59877C5.99909 4.59877 6.04461 4.5706 6.06448 4.52366C6.09099 4.46102 6.06179 4.38871 5.99915 4.36232L5.16669 4.00987L5.64568 3.73293L6.50219 4.12511C6.51879 4.13267 6.53619 4.13628 6.55331 4.13628C6.59992 4.13628 6.64457 4.10971 6.66536 4.06437C6.6937 4.00253 6.6665 3.92954 6.60461 3.90119L5.90722 3.58184L6.62333 3.16784C6.68218 3.13378 6.70228 3.05849 6.66833 2.99959L6.66857 2.99945Z"/>
</mask>
<path d="M6.66857 2.99945C6.63445 2.9406 6.55911 2.9205 6.50032 2.95445L5.78379 3.36868L5.8561 2.60373C5.86252 2.53612 5.81282 2.476 5.74503 2.46959C5.67822 2.46295 5.6173 2.51276 5.61089 2.58066L5.52215 3.51989L5.04254 3.79717L5.15384 2.89767C5.16231 2.83023 5.11428 2.76874 5.04683 2.76038C4.97927 2.75185 4.9179 2.79994 4.90954 2.86738L4.7754 3.95164L3.76454 4.53602L3.76391 3.35988L4.63352 2.70342C4.68779 2.66248 4.69862 2.58531 4.65762 2.53097C4.61657 2.47664 4.53945 2.46587 4.48517 2.50686L3.76372 3.05151L3.76338 2.49822L4.53114 1.95255C4.58656 1.91321 4.5995 1.83632 4.56017 1.78084C4.52067 1.72542 4.44389 1.71248 4.38847 1.75182L3.76321 2.19621L3.7627 1.36913C3.7627 1.30117 3.70756 1.24609 3.6396 1.24609C3.57165 1.24609 3.51657 1.30134 3.51657 1.3693L3.51708 2.19689L2.89074 1.75187C2.83532 1.71254 2.75843 1.72553 2.71904 1.7809C2.67971 1.83638 2.6927 1.91321 2.74807 1.9526L3.51721 2.49914L3.51755 3.053L2.79421 2.50686C2.74005 2.46598 2.6627 2.47675 2.62176 2.53096C2.58083 2.58524 2.59165 2.66247 2.64587 2.70341L3.5177 3.36159L3.51833 4.5292L2.49936 3.94167L2.36556 2.8604C2.3572 2.79302 2.29571 2.74527 2.22826 2.7534C2.16088 2.76176 2.11284 2.82324 2.12126 2.89069L2.23221 3.78772L1.7529 3.51137L1.66432 2.57374C1.65791 2.50595 1.59642 2.45562 1.53018 2.46267C1.46245 2.46908 1.41276 2.52914 1.41911 2.59681L1.49125 3.36056L0.774611 2.94737C0.715984 2.91348 0.640411 2.93369 0.606454 2.9926C0.572561 3.05151 0.592771 3.1268 0.651683 3.16076L1.36872 3.57418L0.67018 3.89405C0.608289 3.92244 0.581152 3.99538 0.609435 4.05722C0.630219 4.1025 0.674875 4.12913 0.721479 4.12913C0.738655 4.12913 0.75606 4.12552 0.772606 4.11796L1.63054 3.72515L2.11025 4.00174L1.27551 4.35515C1.21287 4.3816 1.18367 4.45391 1.21018 4.51649C1.23005 4.56344 1.27562 4.59161 1.3236 4.59161C1.33952 4.59161 1.35583 4.58852 1.37152 4.58182L2.37757 4.15587L3.38912 4.7391L2.37087 5.32783L1.36758 4.90302C1.3046 4.87646 1.23263 4.90583 1.20624 4.96835C1.17973 5.03098 1.20893 5.10329 1.27156 5.12969L2.10402 5.48214L1.62504 5.75908L0.768528 5.36689C0.706867 5.33884 0.633698 5.36575 0.605355 5.42764C0.577015 5.48947 0.60421 5.56247 0.6661 5.59081L1.3635 5.91017L0.647442 6.32416C0.588586 6.35822 0.56849 6.43351 0.602441 6.49242C0.625285 6.53181 0.666621 6.55391 0.70916 6.55391C0.730114 6.55391 0.751355 6.54864 0.770706 6.53742L1.48723 6.12319L1.41492 6.88814C1.40851 6.95576 1.4582 7.01587 1.52599 7.02228C1.52994 7.02268 1.53378 7.02285 1.53773 7.02285C1.60053 7.02285 1.65412 6.97511 1.66008 6.91133L1.74882 5.97209L2.22831 5.69482L2.11707 6.59437C2.10871 6.66176 2.15663 6.72325 2.22419 6.73161C2.22929 6.73224 2.23438 6.73258 2.23948 6.73258C2.30068 6.73258 2.35381 6.68684 2.36143 6.62455L2.49545 5.54046L3.50643 4.95597L3.50706 6.13211L2.63745 6.78857C2.58317 6.82951 2.57235 6.90668 2.61335 6.96102C2.63756 6.99314 2.67443 7.01003 2.71165 7.01003C2.73741 7.01003 2.76352 7.0019 2.78568 6.98518L3.50712 6.44054L3.50747 6.99383L2.7397 7.5395C2.68428 7.57883 2.67134 7.65572 2.71068 7.7112C2.73472 7.74493 2.77262 7.76302 2.81116 7.76302C2.83589 7.76302 2.86074 7.75563 2.88238 7.74029L3.50763 7.2959L3.50815 8.12297C3.50815 8.19093 3.56328 8.24601 3.63124 8.24601C3.6992 8.24601 3.75428 8.19076 3.75428 8.1228L3.75376 7.29521L4.3801 7.74023C4.40174 7.75569 4.42665 7.76296 4.45133 7.76296C4.4898 7.76296 4.52782 7.74493 4.5518 7.71115C4.59114 7.65567 4.57814 7.57884 4.52278 7.53944L3.75364 6.99291L3.75329 6.43905L4.47663 6.98519C4.4989 7.0019 4.5249 7.01003 4.55066 7.01003C4.58793 7.01003 4.6248 6.99315 4.64896 6.96103C4.6899 6.90675 4.67908 6.82951 4.62486 6.78857L3.75302 6.1304L3.75239 4.96279L4.77149 5.55037L4.90517 6.6316C4.9129 6.69401 4.96592 6.73964 5.02712 6.73964C5.03221 6.73964 5.0372 6.73929 5.04241 6.73866C5.10985 6.7303 5.15783 6.66882 5.14953 6.60143L5.03863 5.70433L5.51795 5.98069L5.60652 6.91832C5.61253 6.9821 5.66617 7.02985 5.72887 7.02985C5.73282 7.02985 5.73665 7.02968 5.7406 7.02928C5.80833 7.02286 5.85803 6.96281 5.85167 6.89513L5.77953 6.13139L6.49617 6.54458C6.51547 6.55574 6.53665 6.56101 6.55755 6.56101C6.60015 6.56101 6.64143 6.53885 6.66433 6.49935C6.69822 6.44043 6.67801 6.36515 6.6191 6.33119L5.90206 5.91777L6.60054 5.5979C6.66243 5.5695 6.68957 5.49656 6.66129 5.43473C6.63289 5.37278 6.55995 5.34593 6.49811 5.37398L5.64024 5.7668L5.16053 5.49021L5.99515 5.13679C6.05779 5.11034 6.08699 5.03803 6.06048 4.97545C6.03397 4.91293 5.96206 4.88345 5.89914 4.91013L4.8932 5.33608L3.8816 4.75284L4.89984 4.16417L5.90314 4.58898C5.91883 4.59562 5.93514 4.59877 5.95106 4.59877C5.99909 4.59877 6.04461 4.5706 6.06448 4.52366C6.09099 4.46102 6.06179 4.38871 5.99915 4.36232L5.16669 4.00987L5.64568 3.73293L6.50219 4.12511C6.51879 4.13267 6.53619 4.13628 6.55331 4.13628C6.59992 4.13628 6.64457 4.10971 6.66536 4.06437C6.6937 4.00253 6.6665 3.92954 6.60461 3.90119L5.90722 3.58184L6.62333 3.16784C6.68218 3.13378 6.70228 3.05849 6.66833 2.99959L6.66857 2.99945Z" fill="#B9BCFF"/>
<path d="M6.66857 2.99945C6.63445 2.9406 6.55911 2.9205 6.50032 2.95445L5.78379 3.36868L5.8561 2.60373C5.86252 2.53612 5.81282 2.476 5.74503 2.46959C5.67822 2.46295 5.6173 2.51276 5.61089 2.58066L5.52215 3.51989L5.04254 3.79717L5.15384 2.89767C5.16231 2.83023 5.11428 2.76874 5.04683 2.76038C4.97927 2.75185 4.9179 2.79994 4.90954 2.86738L4.7754 3.95164L3.76454 4.53602L3.76391 3.35988L4.63352 2.70342C4.68779 2.66248 4.69862 2.58531 4.65762 2.53097C4.61657 2.47664 4.53945 2.46587 4.48517 2.50686L3.76372 3.05151L3.76338 2.49822L4.53114 1.95255C4.58656 1.91321 4.5995 1.83632 4.56017 1.78084C4.52067 1.72542 4.44389 1.71248 4.38847 1.75182L3.76321 2.19621L3.7627 1.36913C3.7627 1.30117 3.70756 1.24609 3.6396 1.24609C3.57165 1.24609 3.51657 1.30134 3.51657 1.3693L3.51708 2.19689L2.89074 1.75187C2.83532 1.71254 2.75843 1.72553 2.71904 1.7809C2.67971 1.83638 2.6927 1.91321 2.74807 1.9526L3.51721 2.49914L3.51755 3.053L2.79421 2.50686C2.74005 2.46598 2.6627 2.47675 2.62176 2.53096C2.58083 2.58524 2.59165 2.66247 2.64587 2.70341L3.5177 3.36159L3.51833 4.5292L2.49936 3.94167L2.36556 2.8604C2.3572 2.79302 2.29571 2.74527 2.22826 2.7534C2.16088 2.76176 2.11284 2.82324 2.12126 2.89069L2.23221 3.78772L1.7529 3.51137L1.66432 2.57374C1.65791 2.50595 1.59642 2.45562 1.53018 2.46267C1.46245 2.46908 1.41276 2.52914 1.41911 2.59681L1.49125 3.36056L0.774611 2.94737C0.715984 2.91348 0.640411 2.93369 0.606454 2.9926C0.572561 3.05151 0.592771 3.1268 0.651683 3.16076L1.36872 3.57418L0.67018 3.89405C0.608289 3.92244 0.581152 3.99538 0.609435 4.05722C0.630219 4.1025 0.674875 4.12913 0.721479 4.12913C0.738655 4.12913 0.75606 4.12552 0.772606 4.11796L1.63054 3.72515L2.11025 4.00174L1.27551 4.35515C1.21287 4.3816 1.18367 4.45391 1.21018 4.51649C1.23005 4.56344 1.27562 4.59161 1.3236 4.59161C1.33952 4.59161 1.35583 4.58852 1.37152 4.58182L2.37757 4.15587L3.38912 4.7391L2.37087 5.32783L1.36758 4.90302C1.3046 4.87646 1.23263 4.90583 1.20624 4.96835C1.17973 5.03098 1.20893 5.10329 1.27156 5.12969L2.10402 5.48214L1.62504 5.75908L0.768528 5.36689C0.706867 5.33884 0.633698 5.36575 0.605355 5.42764C0.577015 5.48947 0.60421 5.56247 0.6661 5.59081L1.3635 5.91017L0.647442 6.32416C0.588586 6.35822 0.56849 6.43351 0.602441 6.49242C0.625285 6.53181 0.666621 6.55391 0.70916 6.55391C0.730114 6.55391 0.751355 6.54864 0.770706 6.53742L1.48723 6.12319L1.41492 6.88814C1.40851 6.95576 1.4582 7.01587 1.52599 7.02228C1.52994 7.02268 1.53378 7.02285 1.53773 7.02285C1.60053 7.02285 1.65412 6.97511 1.66008 6.91133L1.74882 5.97209L2.22831 5.69482L2.11707 6.59437C2.10871 6.66176 2.15663 6.72325 2.22419 6.73161C2.22929 6.73224 2.23438 6.73258 2.23948 6.73258C2.30068 6.73258 2.35381 6.68684 2.36143 6.62455L2.49545 5.54046L3.50643 4.95597L3.50706 6.13211L2.63745 6.78857C2.58317 6.82951 2.57235 6.90668 2.61335 6.96102C2.63756 6.99314 2.67443 7.01003 2.71165 7.01003C2.73741 7.01003 2.76352 7.0019 2.78568 6.98518L3.50712 6.44054L3.50747 6.99383L2.7397 7.5395C2.68428 7.57883 2.67134 7.65572 2.71068 7.7112C2.73472 7.74493 2.77262 7.76302 2.81116 7.76302C2.83589 7.76302 2.86074 7.75563 2.88238 7.74029L3.50763 7.2959L3.50815 8.12297C3.50815 8.19093 3.56328 8.24601 3.63124 8.24601C3.6992 8.24601 3.75428 8.19076 3.75428 8.1228L3.75376 7.29521L4.3801 7.74023C4.40174 7.75569 4.42665 7.76296 4.45133 7.76296C4.4898 7.76296 4.52782 7.74493 4.5518 7.71115C4.59114 7.65567 4.57814 7.57884 4.52278 7.53944L3.75364 6.99291L3.75329 6.43905L4.47663 6.98519C4.4989 7.0019 4.5249 7.01003 4.55066 7.01003C4.58793 7.01003 4.6248 6.99315 4.64896 6.96103C4.6899 6.90675 4.67908 6.82951 4.62486 6.78857L3.75302 6.1304L3.75239 4.96279L4.77149 5.55037L4.90517 6.6316C4.9129 6.69401 4.96592 6.73964 5.02712 6.73964C5.03221 6.73964 5.0372 6.73929 5.04241 6.73866C5.10985 6.7303 5.15783 6.66882 5.14953 6.60143L5.03863 5.70433L5.51795 5.98069L5.60652 6.91832C5.61253 6.9821 5.66617 7.02985 5.72887 7.02985C5.73282 7.02985 5.73665 7.02968 5.7406 7.02928C5.80833 7.02286 5.85803 6.96281 5.85167 6.89513L5.77953 6.13139L6.49617 6.54458C6.51547 6.55574 6.53665 6.56101 6.55755 6.56101C6.60015 6.56101 6.64143 6.53885 6.66433 6.49935C6.69822 6.44043 6.67801 6.36515 6.6191 6.33119L5.90206 5.91777L6.60054 5.5979C6.66243 5.5695 6.68957 5.49656 6.66129 5.43473C6.63289 5.37278 6.55995 5.34593 6.49811 5.37398L5.64024 5.7668L5.16053 5.49021L5.99515 5.13679C6.05779 5.11034 6.08699 5.03803 6.06048 4.97545C6.03397 4.91293 5.96206 4.88345 5.89914 4.91013L4.8932 5.33608L3.8816 4.75284L4.89984 4.16417L5.90314 4.58898C5.91883 4.59562 5.93514 4.59877 5.95106 4.59877C5.99909 4.59877 6.04461 4.5706 6.06448 4.52366C6.09099 4.46102 6.06179 4.38871 5.99915 4.36232L5.16669 4.00987L5.64568 3.73293L6.50219 4.12511C6.51879 4.13267 6.53619 4.13628 6.55331 4.13628C6.59992 4.13628 6.64457 4.10971 6.66536 4.06437C6.6937 4.00253 6.6665 3.92954 6.60461 3.90119L5.90722 3.58184L6.62333 3.16784C6.68218 3.13378 6.70228 3.05849 6.66833 2.99959L6.66857 2.99945Z" stroke="#B9BCFF" stroke-width="0.2" mask="url(#path-4-outside-1_1_1105)"/>
</g>
<defs>
<clipPath id="clip0_1_1105">
<rect width="7.41172" height="8.64701" fill="white"/>
</clipPath>
</defs>
</svg>
