<svg width="37" height="36" viewBox="0 0 37 36" fill="none" xmlns="http://www.w3.org/2000/svg">
<path d="M34.0565 21.4113C34.1644 20.6197 34.2364 19.828 34.2364 19.0004C34.2364 16.4816 23.6212 15.7979 18.0077 15.7979C12.394 15.7979 1.77892 16.4816 1.77892 19.0004C1.77892 19.828 1.85095 20.6196 1.95889 21.4113C0.807271 21.8792 0.015625 22.9947 0.015625 24.2542C0.015625 25.9455 1.38308 27.3488 3.07439 27.3488H3.86603C6.67278 32.4944 11.9264 35.985 18.0077 35.985C24.0891 35.985 29.3427 32.4945 32.1494 27.3488H32.9411C34.6323 27.3488 35.9998 25.9814 35.9998 24.2901C35.9998 22.9946 35.2082 21.8791 34.0568 21.4113L34.0565 21.4113ZM18.0076 16.6616C27.9392 16.6616 33.3728 18.2088 33.3728 19.0004C33.3728 19.7921 27.9393 21.3393 18.0076 21.3393C8.07605 21.3393 2.64248 19.7921 2.64248 19.0004C2.64248 18.2088 8.07618 16.6616 18.0076 16.6616ZM3.07429 26.4492C1.8509 26.4492 0.879265 25.4776 0.879265 24.2542C0.879265 23.4266 1.34713 22.6708 2.06673 22.3112C2.35464 23.7866 2.82253 25.1538 3.43419 26.4492H3.07429ZM18.0076 35.1214C9.91123 35.1214 3.29019 28.5363 2.71445 20.188C5.41324 21.7352 13.4017 22.2031 18.0076 22.2031C22.6136 22.2031 30.602 21.7352 33.3008 20.188C32.725 28.5003 26.104 35.1214 18.0076 35.1214ZM32.941 26.4492H32.581C33.1927 25.1538 33.6606 23.7504 33.9485 22.3112C34.6681 22.6711 35.1359 23.4266 35.1359 24.2542C35.1359 25.4776 34.1284 26.4492 32.9409 26.4492H32.941Z" fill="white"/>
<path d="M7.46559 8.24129C10.2003 9.50086 13.9067 10.976 17.9369 12.3075C20.024 13.0272 28.912 15.9419 32.5104 15.9419C33.338 15.9419 33.8779 15.798 34.0217 15.4022C35.5331 10.9401 29.3079 6.62212 23.2985 4.17521C23.4424 3.95935 23.5864 3.70734 23.6585 3.4556C23.8743 2.77184 23.8384 2.08814 23.5146 1.44056C23.2262 0.828615 22.6866 0.360978 22.0387 0.144881C21.3911 -0.0709837 20.6713 -0.0350897 20.0237 0.288708C19.3761 0.612506 18.9082 1.15239 18.6923 1.80003C18.6203 2.05204 18.5844 2.33969 18.5844 2.59168C12.359 0.900692 4.76658 0.5769 3.25525 5.0028V5.03869C3.07553 5.54245 3.25525 6.26234 7.46557 8.24126L7.46559 8.24129ZM19.5202 2.08817C19.664 1.65644 19.9881 1.29652 20.4198 1.08062C20.6718 0.972685 20.9236 0.900647 21.2115 0.900647C21.3914 0.900647 21.6073 0.93654 21.7873 1.00858C22.6869 1.33238 23.1906 2.304 22.9027 3.23952C22.5789 4.13912 21.6073 4.64289 20.6718 4.35496C19.7001 3.99527 19.2323 2.98776 19.5201 2.08816L19.5202 2.08817ZM18.7286 3.5274C18.9806 4.24701 19.5561 4.85874 20.3478 5.11075C20.6357 5.21869 20.9236 5.25458 21.1753 5.25458C21.6791 5.25458 22.1829 5.11075 22.5787 4.82285C28.7321 7.23377 34.3455 11.3359 33.194 15.0423C32.3303 15.4022 26.7888 14.3585 18.1887 11.4439C9.58852 8.56512 4.55077 6.01039 4.08298 5.21874C5.45043 1.58443 12.3593 1.76441 18.7284 3.52749L18.7286 3.5274Z" fill="white"/>
</svg>
