<svg width="23" height="16" viewBox="0 0 23 16" fill="none" xmlns="http://www.w3.org/2000/svg">
<path d="M20.9318 5.1735C20.8907 4.29401 20.5123 3.46422 19.875 2.85664C19.2377 2.24922 18.3908 1.91063 17.5102 1.91162H9.01338C8.75574 1.37021 8.35722 0.908046 7.8596 0.573534C7.36198 0.239013 6.78355 0.0446759 6.18478 0.0107424H3.46654C3.12591 0.0105727 2.79361 0.116988 2.5161 0.314884L0.706546 1.60748C0.328068 1.87768 0.0824913 2.29623 0.0313956 2.75835C-0.0196915 3.22052 0.128308 3.68251 0.438558 4.02888C0.748978 4.37529 1.19196 4.57299 1.65699 4.57286H2.68347V7.99445C2.68364 8.63158 2.86168 9.25598 3.19755 9.79722C3.53326 10.3386 4.01356 10.7755 4.58435 11.0586V15.5981C4.58435 15.6989 4.62441 15.7957 4.69569 15.8669C4.76697 15.9382 4.86371 15.9783 4.96453 15.9783H6.48523C6.58605 15.9783 6.68279 15.9382 6.75407 15.8669C6.82535 15.7957 6.86541 15.6989 6.86541 15.5981V12.6821L7.92226 11.2755C8.19381 11.369 8.4791 11.4165 8.76629 11.4162H15.9896V11.3629C16.252 11.8393 16.6373 12.2364 17.1054 12.5133C17.5734 12.7901 18.1071 12.9364 18.6509 12.9369H19.0311V15.5981C19.0311 15.699 19.0711 15.7957 19.1424 15.867C19.2137 15.9383 19.3104 15.9783 19.4112 15.9783H20.9319C21.0328 15.9783 21.1295 15.9383 21.2008 15.867C21.2721 15.7957 21.3121 15.699 21.3121 15.5981V11.7964C21.3121 11.6767 21.2558 11.564 21.1601 11.4922L20.2743 10.8269C20.5862 10.6679 20.8484 10.4257 21.0316 10.1272C21.2147 9.82883 21.3118 9.48547 21.3121 9.13518V8.124C21.8422 8.09667 22.344 7.87638 22.7225 7.50416C22.7945 7.43288 22.835 7.33563 22.835 7.2343C22.835 7.13298 22.7945 7.03573 22.7225 6.96445L20.9318 5.1735ZM20.4452 6.96406L19.9053 7.50396C20.0922 7.69388 20.311 7.84968 20.5516 7.96408V9.13498C20.5516 9.43742 20.4315 9.72766 20.2176 9.94148C20.0038 10.1553 19.7135 10.2755 19.4111 10.2755C19.2475 10.2755 19.1022 10.3802 19.0505 10.5355C18.9987 10.6906 19.0522 10.8617 19.183 10.9598L20.5517 11.9863V15.2178H19.7913V12.5565C19.7913 12.4557 19.7512 12.359 19.68 12.2877C19.6087 12.2164 19.5119 12.1764 19.4111 12.1764H18.6508C18.0457 12.1764 17.4656 11.936 17.0377 11.5083C16.61 11.0805 16.3697 10.5004 16.3697 9.89531V7.99443H15.6094V9.89531C15.6111 10.1519 15.6443 10.4072 15.7081 10.6557H8.76633C8.26224 10.6557 7.77874 10.4554 7.42211 10.099C7.0657 9.74241 6.86545 9.25887 6.86545 8.75478V7.99443H6.10509V8.75478C6.10934 9.62089 6.53483 10.4306 7.24562 10.9255L6.18113 12.3284C6.13174 12.3943 6.10509 12.4742 6.10509 12.5565V15.2178H5.34474V10.8156C5.34559 10.6606 5.25224 10.5207 5.10899 10.462C4.61715 10.2635 4.19588 9.92248 3.89921 9.48291C3.60254 9.04334 3.444 8.52499 3.44387 7.99461V4.57303H4.20422C4.61053 4.57099 5.00546 4.43878 5.33102 4.1959C5.65671 3.95303 5.89603 3.61221 6.01382 3.22339C6.27756 3.35849 6.56913 3.43011 6.8655 3.43249C6.96631 3.43249 7.06305 3.39243 7.13434 3.32115C7.20562 3.24987 7.24567 3.15313 7.24567 3.05231V1.5316H6.48532V2.60748C6.26282 2.5289 6.07018 2.38311 5.93404 2.19047C5.79793 1.99784 5.72478 1.76753 5.72495 1.53162H4.96459C4.96239 1.94319 5.09596 2.34424 5.34477 2.67215C5.34477 2.97459 5.22461 3.26483 5.01076 3.47864C4.79691 3.69245 4.50666 3.81266 4.20426 3.81266H1.65708C1.4103 3.80858 1.17675 3.7003 1.01399 3.51462C0.8514 3.32895 0.774856 3.08319 0.803198 2.83795C0.831541 2.59271 0.962055 2.37105 1.16284 2.22728L2.97239 0.93468C3.11682 0.83132 3.28909 0.774293 3.46662 0.771239H6.18486C6.67331 0.816043 7.13986 0.994761 7.53294 1.28806C7.92602 1.58117 8.23051 1.97729 8.41278 2.43268C8.47032 2.57745 8.61051 2.67232 8.76631 2.67215H17.5104C18.2162 2.67215 18.8931 2.95253 19.3921 3.45167C19.8912 3.95063 20.1716 4.62748 20.1716 5.33339C20.1711 5.43437 20.2106 5.53162 20.2819 5.60324L21.8749 7.19625H21.8748C21.648 7.33695 21.3781 7.39092 21.1148 7.34832C20.8514 7.30572 20.6124 7.16926 20.4415 6.96441L20.4452 6.96406Z" fill="#B9BCFF"/>
<path d="M3.06445 1.53125H3.82481V2.2916H3.06445V1.53125Z" fill="#B9BCFF"/>
</svg>
