<svg width="78" height="42" viewBox="0 0 78 42" fill="none" xmlns="http://www.w3.org/2000/svg">
<g clip-path="url(#clip0_1_1237)">
<path d="M7.13539 32.6914C5.08755 31.7412 2.75305 30.4196 1.53573 27.6868C0.318932 24.9537 0.222087 20.811 2.41528 16.7402C4.60959 12.6677 9.09514 8.67152 14.9454 5.72129C20.7959 2.77107 28.0111 0.871285 36.9576 0.650713C45.9041 0.431958 56.5808 1.89485 63.3571 3.43069C70.1333 4.96592 73.0111 6.57513 74.5709 8.96428C76.1301 11.3534 76.3744 14.5218 74.8392 16.7647C73.304 19.0074 69.9874 20.3239 65.5373 20.6229C61.0853 20.9237 55.4987 20.2065 50.9864 20.787C46.4735 21.3675 43.0362 23.2433 40.3708 25.5283C37.7037 27.8126 35.8067 30.5042 33.0188 32.2019C30.2298 33.9012 26.5481 34.6087 23.0145 34.8771C19.4792 35.1454 16.092 34.9733 13.5165 34.5991C10.9428 34.2231 9.18194 33.6426 7.13586 32.6924L7.13539 32.6914Z" stroke="#B9BCFF" stroke-width="1.22504" stroke-linecap="round" stroke-linejoin="round"/>
<path d="M76.8922 19.1895C76.9726 20.588 76.6524 21.9722 75.8697 23.1155C74.3345 25.3582 71.0179 26.6747 66.5677 26.9738C62.1158 27.2746 56.5291 26.5574 52.0169 27.1378C47.5058 27.7183 44.0684 29.5942 41.4013 31.8792C38.7342 34.1635 36.8372 36.8551 34.0493 38.5528C31.2603 40.2521 27.5786 40.9596 24.045 41.2279C20.5097 41.4962 17.1225 41.3242 14.547 40.9499C11.9733 40.5739 10.2142 39.9935 8.16635 39.0432C6.33827 38.1944 4.28239 37.0512 2.99609 34.8728" stroke="#B9BCFF" stroke-width="1.22504" stroke-linecap="round" stroke-linejoin="round"/>
<path d="M0.683594 23.6895C0.701254 25.1991 0.720622 26.7104 0.826578 28.1602C0.932535 29.6106 1.12906 30.9994 1.50505 32.1085C1.88101 33.2159 2.43929 34.0441 2.99527 34.8719" stroke="#B9BCFF" stroke-width="1.22504" stroke-linecap="round" stroke-linejoin="round"/>
<path d="M75.4414 10.7402C75.9159 12.0328 76.3916 13.3254 76.6326 14.7335C76.8752 16.1417 76.8832 17.6661 76.8912 19.19" stroke="#B9BCFF" stroke-width="1.22504" stroke-linecap="round" stroke-linejoin="round"/>
<path d="M18.3396 14.9093C16.6437 15.533 15.0727 16.2998 13.9652 17.168C12.8589 18.0328 12.2175 18.9961 12.002 20.0858C11.7884 21.1744 12.002 22.3878 12.7705 23.3863C13.5373 24.3878 14.8589 25.1723 16.7689 25.2805C18.679 25.3864 21.1786 24.8145 23.2654 23.8529C25.3537 22.8885 27.032 21.5316 28.0869 20.1923C29.1402 18.8547 29.5675 17.533 29.4085 16.5157C29.2462 15.4983 28.4954 14.7828 27.4438 14.3019C26.3905 13.8212 25.0341 13.5705 23.4454 13.6861C21.8555 13.8018 20.0353 14.2843 18.3396 14.9098L18.3396 14.9093Z" stroke="#B9BCFF" stroke-width="1.22504" stroke-linecap="round" stroke-linejoin="round"/>
<path d="M17.1256 17.3766C16.1446 17.7383 15.2365 18.182 14.5969 18.6822C13.9588 19.1824 13.5874 19.7383 13.4632 20.3683C13.3396 20.9967 13.4632 21.6996 13.907 22.2766C14.3491 22.8537 15.113 23.3088 16.2169 23.3698C17.3198 23.4325 18.7651 23.1015 19.9727 22.5449C21.1787 21.9872 22.1477 21.204 22.7572 20.4293C23.3667 19.6562 23.614 18.8923 23.5211 18.3055C23.4277 17.7171 22.9953 17.3041 22.3864 17.0261C21.7768 16.7481 20.9941 16.6034 20.0765 16.6706C19.1588 16.7367 18.1055 17.0147 17.1262 17.3764L17.1256 17.3766Z" stroke="#B9BCFF" stroke-width="1.22504" stroke-linecap="round" stroke-linejoin="round"/>
<path d="M17.2175 8.31431C15.3012 9.02012 13.0186 10.1646 11.0476 11.6484C9.07487 13.1324 7.41431 14.957 6.18445 16.666C4.95458 18.3749 4.15702 19.9712 4.26811 21.7655C4.37919 23.56 5.39661 25.5549 7.43537 26.9727C9.47357 28.3906 12.5315 29.2315 15.5012 29.8956C18.4691 30.561 21.3499 31.048 24.009 31.003C26.6664 30.9597 29.1035 30.3827 30.7002 29.1185C32.2953 27.8567 33.0473 25.9079 33.4688 23.4259C33.8898 20.9451 33.9786 17.9327 33.8898 15.6291C33.8015 13.3255 33.5343 11.7286 32.6052 10.4218C31.6744 9.11505 30.0783 8.09539 28.2406 7.58608C26.4011 7.07624 24.3179 7.07624 22.5012 7.21011C20.6845 7.34341 19.1346 7.60888 17.2182 8.31468L17.2175 8.31431Z" stroke="#B9BCFF" stroke-width="1.22504" stroke-linecap="round" stroke-linejoin="round"/>
<path d="M34.5108 3.59767C35.4849 3.2217 37.7003 3.2217 40.8243 3.37721C43.9477 3.53159 47.9815 3.84034 51.2822 4.30633C54.5827 4.77117 57.1537 5.39153 58.1499 6.38842C59.1468 7.38531 58.5698 8.75988 56.9975 10.2229C55.4253 11.684 52.8544 13.234 50.0415 13.6551C47.2279 14.0761 44.17 13.3674 41.4663 11.8173C38.7639 10.2662 36.4168 7.87181 35.1095 6.29967C33.8027 4.72742 33.5355 3.97322 34.5113 3.59719L34.5108 3.59767Z" stroke="#B9BCFF" stroke-width="1.22504" stroke-linecap="round" stroke-linejoin="round"/>
<path d="M38.9612 14.6861C38.2298 15.0188 37.6105 15.7485 37.1895 16.89C36.7686 18.0316 36.5464 19.5811 36.3806 20.9989C36.2131 22.4168 36.1044 23.703 36.625 24.079C37.1457 24.455 38.297 23.923 39.2489 23.2912C40.2025 22.6595 40.9562 21.9297 41.953 21.3971C42.9499 20.865 44.1894 20.534 45.0526 20.0128C45.9173 19.4921 46.4061 18.7829 46.4061 18.1079C46.4061 17.4311 45.9173 16.7897 44.9979 16.1915C44.0784 15.5934 42.7278 15.0391 41.63 14.7303C40.5334 14.4199 39.6926 14.3527 38.9611 14.6853L38.9612 14.6861Z" stroke="#B9BCFF" stroke-width="1.22504" stroke-linecap="round" stroke-linejoin="round"/>
<path d="M62.3753 6.64785C63.2401 6.47125 64.5696 6.69115 66.0987 7.2232C67.6277 7.75526 69.356 8.59609 70.6855 9.50464C72.0151 10.4132 72.9443 11.3891 73.1869 12.4743C73.4313 13.5595 72.9892 14.7558 71.4374 15.9083C69.8863 17.0596 67.2287 18.1687 64.7912 18.6347C62.3541 19.0996 60.1388 18.9207 58.9857 18.4787C57.8345 18.0349 57.7462 17.3262 57.9888 16.2633C58.2332 15.1992 58.8086 13.7812 59.3184 12.3406C59.8283 10.9 60.2703 9.43875 60.6913 8.41965C61.1123 7.40053 61.511 6.8246 62.3747 6.648L62.3753 6.64785Z" stroke="#B9BCFF" stroke-width="1.22504" stroke-linecap="round" stroke-linejoin="round"/>
</g>
<defs>
<clipPath id="clip0_1_1237">
<rect width="77.5469" height="42" fill="white"/>
</clipPath>
</defs>
</svg>
