<svg width="10" height="10" viewBox="0 0 10 10" fill="none" xmlns="http://www.w3.org/2000/svg">
<path d="M7.24321 9.98599C5.65564 9.98599 4.0366 9.17163 2.4308 7.56603C-0.963527 4.17223 0.0869544 1.54253 0.489885 0.817251C0.793304 0.270954 1.92996 0.0613694 2.27114 0.00959384C2.42894 -0.0125802 2.5824 0.0653906 2.6548 0.206272L3.86541 2.56416C3.93863 2.70721 3.91161 2.88089 3.79775 2.99444L2.79342 3.99877C2.90842 4.42019 3.52784 5.27363 4.11047 5.90761C4.72113 6.46763 5.57457 7.08635 5.99744 7.20279L7.00134 6.19888C7.1152 6.08502 7.28816 6.058 7.43163 6.13122L9.78951 7.34141C9.93071 7.41382 10.0098 7.568 9.98619 7.72507C9.93483 8.06625 9.72526 9.20291 9.17814 9.50633C8.61524 9.82046 7.94546 9.98611 7.24312 9.98611L7.24321 9.98599ZM2.12268 0.788366C1.65031 0.888511 1.20632 1.05817 1.13609 1.17646C0.796763 1.7867 -0.0745241 4.0158 2.95365 7.04339C4.39486 8.4846 5.87827 9.24677 7.24302 9.24677C7.82037 9.24677 8.36566 9.11331 8.82068 8.86084C8.93898 8.79061 9.10905 8.3467 9.2092 7.87425L7.33482 6.91212L6.39412 7.85282C6.32688 7.92047 6.23591 7.95894 6.14093 7.96111H6.14051C5.29595 7.96111 3.86719 6.68554 3.58925 6.42965C3.3083 6.12623 2.01787 4.68016 2.03646 3.85592C2.03873 3.76052 2.07751 3.66997 2.14475 3.60272L3.08545 2.66202L2.12268 0.788366Z" fill="white"/>
</svg>
