<svg width="41" height="24" viewBox="0 0 41 24" fill="none" xmlns="http://www.w3.org/2000/svg">
<path d="M20.1958 24.0001C11.4004 24.0001 5.70977 19.7937 5.00437 18.1215C4.95308 18.0033 0 6.25585 0 5.46364H1.27659C1.27887 5.44028 1.27887 5.41691 1.27659 5.39354C1.41051 6.05749 4.30224 13.1676 6.18517 17.6393C6.59038 18.5967 11.7286 22.9881 20.9556 22.7265C29.767 22.4743 33.262 18.8521 33.7215 17.8977C34.0789 17.1478 34.679 15.9093 35.3651 14.4988C36.8779 11.3872 39.4023 6.201 39.5907 5.52113L39.5904 5.52141C39.6309 5.20028 39.905 4.96034 40.2287 4.96291C40.398 4.96291 40.5604 5.03016 40.6801 5.14984C40.7997 5.26952 40.867 5.43194 40.867 5.6012C40.867 5.99387 40.2637 7.35027 36.5169 15.0509C35.8339 16.4582 35.2403 17.6901 34.8796 18.437C34.2413 19.7965 30.303 23.7317 21.0027 23.9964C20.7189 23.9967 20.4573 23.9998 20.1958 23.9998L20.1958 24.0001Z" fill="#B9BCFF"/>
<path d="M20.4251 12.0672H20.1985C8.72237 12.029 0.0379329 9.15356 0 5.38107C0.0105432 4.70089 0.301763 4.05546 0.804104 3.59698C3.47553 0.906737 12.6698 -0.0187524 20.3643 0.000287006C28.1165 0.0259325 37.359 1.03126 40.0654 3.76936C40.5549 4.21815 40.8388 4.84818 40.8504 5.51186C40.8154 9.20142 31.8603 12.0672 20.425 12.0672H20.4251ZM20.023 1.27673C10.8287 1.27673 3.65715 2.5342 1.70726 4.49701C1.45052 4.71642 1.29493 5.03101 1.27641 5.36808C1.29864 7.60211 7.88899 10.7489 20.2049 10.7936H20.4252C32.2624 10.7936 39.5455 7.72349 39.574 5.50201V5.5023C39.5569 5.17631 39.407 4.8717 39.1591 4.65968C37.1867 2.66185 29.6328 1.29897 20.3612 1.27045H20.0229L20.023 1.27673Z" fill="#B9BCFF"/>
<path d="M36.5014 9.54898C36.3062 9.54955 36.1216 9.46036 36.0002 9.30734C35.8788 9.15431 35.8344 8.95399 35.8791 8.76393C35.9173 8.59154 36.1982 6.98641 34.1588 6.03525C32.7355 5.37473 31.4173 6.87473 31.4045 6.89071H31.4048C31.2366 7.08619 30.9674 7.16112 30.7223 7.08077C30.4772 7.0007 30.3045 6.78072 30.2846 6.52369C30.2846 6.45017 30.1091 4.68234 28.6539 4.42046C27.7762 4.26089 26.5856 5.43546 26.238 5.85972H26.2378C26.0902 6.04209 25.8545 6.129 25.6237 6.08569C25.3932 6.04238 25.2048 5.87597 25.1336 5.65228C25.1113 5.58218 24.5303 3.87133 23.0463 3.87133C22.2356 3.87133 21.2175 4.91828 20.924 5.28528C20.7749 5.47278 20.5336 5.56111 20.2988 5.51409C20.064 5.46679 19.8753 5.2924 19.8101 5.06188C19.7941 5.00773 19.3695 3.63538 18.1089 3.63538H18.0579H18.0582C17.7054 3.63538 17.4199 3.34957 17.4199 2.99709C17.4199 2.6446 17.7054 2.35879 18.0582 2.35879C19.1012 2.3417 20.074 2.88168 20.6114 3.77588C21.1987 3.23647 22.0986 2.59194 23.0592 2.59194C24.5591 2.59194 25.4559 3.57505 25.9315 4.35034C26.6176 3.71205 27.7284 2.94923 28.8964 3.15983C29.449 3.27381 29.9618 3.5317 30.3833 3.90697C30.8045 4.28225 31.1197 4.76213 31.2964 5.29808C32.0783 4.75553 33.3166 4.22582 34.6984 4.86724C37.1336 6.00019 37.3504 8.09685 37.1239 9.04802C37.0598 9.34038 36.8011 9.54868 36.5016 9.54897L36.5014 9.54898Z" fill="#B9BCFF"/>
<path d="M11.0556 5.85887C10.8422 5.86001 10.6424 5.75429 10.5231 5.57734C10.4037 5.40038 10.3809 5.17556 10.4621 4.97809C10.5578 4.72591 11.4642 2.50472 13.229 2.4058C15.0769 2.30692 15.9195 4.36226 15.9545 4.44834C16.0728 4.77204 15.9126 5.13137 15.5929 5.25988C15.2729 5.38811 14.9088 5.23937 14.7706 4.92392C14.7706 4.92392 14.228 3.64734 13.3025 3.67929C12.4918 3.72402 11.8216 4.99402 11.6527 5.43456H11.6524C11.5626 5.68731 11.3241 5.85686 11.0557 5.85885L11.0556 5.85887Z" fill="#B9BCFF"/>
<path d="M6.42812 7.29541C6.08532 7.29569 5.8035 7.02527 5.78983 6.68276C5.74822 5.67433 6.16967 3.68592 8.08141 3.36677H8.08112C8.42933 3.30693 8.76017 3.54059 8.82001 3.88852C8.88014 4.23673 8.64648 4.56756 8.29827 4.6274C7.02168 4.84112 7.06954 6.61239 7.06954 6.63179C7.08407 6.98314 6.81136 7.28006 6.46002 7.29545L6.42812 7.29541Z" fill="#B9BCFF"/>
</svg>
