<svg width="16" height="23" viewBox="0 0 16 23" fill="none" xmlns="http://www.w3.org/2000/svg">
<path d="M11.9495 13.2625L11.9492 13.2631C10.5558 15.562 9.23088 17.9969 7.97482 20.3666C7.63484 19.7562 7.29865 19.1408 6.96179 18.5243C5.99339 16.7519 5.01943 14.9693 3.93375 13.2631C3.85126 13.1201 3.77015 12.9807 3.69071 12.8442C2.73942 11.2092 2.02615 9.98323 2.02615 7.97621C2.02615 4.68729 4.6848 2.09659 7.97689 2.09659H7.97714C11.1973 2.09659 13.8568 4.68644 13.8568 7.97621C13.8568 10.1519 13.0885 11.4117 11.9495 13.2625ZM15.053 7.97608C15.053 4.0769 11.8762 0.9 7.97689 0.9H7.97608C4.0769 0.9 0.9 4.07673 0.9 7.97608C0.9 10.4979 1.76817 11.9424 2.97948 13.8662C4.16111 15.7996 5.26117 17.8136 6.37339 19.8498C6.73357 20.5093 7.09502 21.171 7.46093 21.8331C7.55455 22.0181 7.75637 22.1 7.94094 22.1C8.12553 22.1 8.32735 22.0181 8.42097 21.8331C8.78834 21.1685 9.1512 20.5042 9.51277 19.8423C10.6237 17.8086 11.7224 15.7972 12.9024 13.8662C12.9252 13.8301 12.9478 13.7941 12.9704 13.7582C14.147 11.8902 15.053 10.4517 15.053 7.97608ZM10.9955 8.26093C10.9955 6.57169 9.67258 5.17116 7.97689 5.17116C6.28448 5.17116 4.88712 6.56835 4.88712 8.26093C4.88712 9.95333 6.28431 11.3507 7.97689 11.3507C9.67253 11.3507 10.9955 9.95034 10.9955 8.26093ZM6.01242 8.26093C6.01242 7.18176 6.88851 6.36775 7.97689 6.36775C8.99171 6.36775 9.87007 7.17948 9.87007 8.26093C9.87007 9.34698 8.98727 10.2254 7.97689 10.2254C6.89313 10.2254 6.01242 9.34465 6.01242 8.26093Z" fill="#B9BCFF" stroke="#B9BCFF" stroke-width="0.2"/>
</svg>
