<svg width="20" height="20" viewBox="0 0 20 20" fill="none" xmlns="http://www.w3.org/2000/svg">
<path d="M13.7985 19.0125C10.7745 19.0125 7.69048 17.4621 4.63171 14.4054C-1.83386 7.94447 0.167119 2.93815 0.934629 1.55739C1.51259 0.517371 3.67772 0.118373 4.32759 0.0198048C4.62817 -0.0224091 4.92049 0.126028 5.05839 0.394234L7.36439 4.88308C7.50387 5.15542 7.4524 5.48605 7.23552 5.70224L5.32245 7.61424C5.5415 8.41651 6.72138 10.0413 7.83118 11.2482C8.99439 12.3144 10.62 13.4922 11.4255 13.7139L13.3378 11.8027C13.5547 11.5859 13.8841 11.5345 14.1574 11.6739L18.6487 13.9778C18.9177 14.1157 19.0684 14.4092 19.0234 14.7082C18.9255 15.3577 18.5263 17.5217 17.4842 18.0993C16.4119 18.6973 15.1361 19.0127 13.7983 19.0127L13.7985 19.0125ZM4.0448 1.5024C3.14502 1.69305 2.29931 2.01605 2.16553 2.24123C1.51918 3.40299 -0.140468 7.64665 5.62765 13.4105C8.3729 16.1542 11.1985 17.6052 13.7981 17.6052C14.8979 17.6052 15.9365 17.3511 16.8033 16.8704C17.0286 16.7367 17.3526 15.8917 17.5433 14.9922L13.973 13.1605L12.1811 14.9514C12.053 15.0802 11.8798 15.1534 11.6988 15.1576H11.698C10.0893 15.1576 7.36779 12.7292 6.83836 12.242C6.3032 11.6644 3.84517 8.91143 3.88058 7.34228C3.8849 7.16066 3.95876 6.98827 4.08685 6.86026L5.87872 5.06939L4.0448 1.5024Z" fill="#B9BCFF"/>
</svg>
