<svg width="14" height="14" viewBox="0 0 14 14" fill="none" xmlns="http://www.w3.org/2000/svg">
<path d="M12.1954 1.09377H10.9376V0.437503C10.9376 0.19593 10.7418 0 10.5001 0C10.2584 0 10.0626 0.19593 10.0626 0.437503V1.09377H3.93753V0.437503C3.93753 0.19593 3.7417 0 3.50003 0C3.25835 0 3.06252 0.19593 3.06252 0.437503V1.09377H1.8047C0.809532 1.09377 0 1.90341 0 2.89847V12.1954C0 13.1904 0.809532 14.0001 1.8047 14.0001H12.1953C13.1905 14.0001 14 13.1905 14 12.1954V2.89847C14 1.90341 13.1905 1.09377 12.1954 1.09377ZM13.1251 12.1954C13.1251 12.7081 12.708 13.1251 12.1954 13.1251H1.8048C1.29217 13.1251 0.875112 12.7081 0.875112 12.1954V4.81248H13.1252L13.1251 12.1954ZM13.1251 3.93748H0.875006V2.89842C0.875006 2.38578 1.29206 1.96873 1.8047 1.96873H3.06252V2.40623C3.06252 2.6478 3.25835 2.84373 3.50003 2.84373C3.7417 2.84373 3.93753 2.6478 3.93753 2.40623V1.96873H10.0626V2.40623C10.0626 2.6478 10.2584 2.84373 10.5001 2.84373C10.7418 2.84373 10.9376 2.6478 10.9376 2.40623V1.96873H12.1954C12.708 1.96873 13.1251 2.38578 13.1251 2.89842V3.93748Z" fill="#B9BCFF"/>
</svg>
