<svg width="19" height="21" viewBox="0 0 19 21" fill="none" xmlns="http://www.w3.org/2000/svg">
<path d="M12.5104 11.2207C14.2672 10.1722 15.4516 8.24168 15.4516 6.03091C15.4516 2.70836 12.7839 0.00585938 9.50382 0.00585938C6.22376 0.00585938 3.55599 2.70826 3.55599 6.03091C3.55599 8.24163 4.74063 10.1722 6.49728 11.2207C2.74485 12.4977 0.03125 16.0866 0.03125 20.3125C0.03125 21.1985 1.35294 21.1985 1.35294 20.3125C1.35294 15.7597 5.00907 12.056 9.50366 12.056C13.9984 12.0557 17.6544 15.7596 17.6544 20.3125C17.6544 21.1985 18.9761 21.1985 18.9761 20.3125C18.9763 16.0865 16.2626 12.4975 12.51 11.2207H12.5104ZM4.87784 6.03091C4.87784 3.44678 6.95286 1.34481 9.50387 1.34481C12.0549 1.34481 14.1299 3.44678 14.1299 6.03091C14.1299 8.61504 12.0549 10.717 9.50387 10.717C6.95286 10.717 4.87784 8.61504 4.87784 6.03091Z" fill="#B9BCFF"/>
</svg>
