<svg width="14" height="14" viewBox="0 0 14 14" fill="none" xmlns="http://www.w3.org/2000/svg">
<g clip-path="url(#clip0_1_1769)">
<path d="M6.99239 0.0146484C3.13837 0.0146484 0 3.15302 0 7.00704C0 10.8611 3.13837 13.9994 6.99239 13.9994C10.8464 13.9994 13.9848 10.8611 13.9848 7.00704C13.9848 3.15302 10.8464 0.0146484 6.99239 0.0146484ZM6.99239 13.0122C3.68117 13.0122 0.986909 10.3179 0.986909 7.00675C0.986909 3.69556 3.6812 1.00127 6.99239 1.00127C10.3036 1.00127 12.9979 3.69556 12.9979 7.00675C12.9979 10.3179 10.3036 13.0122 6.99239 13.0122Z" fill="#B9BCFF"/>
<path d="M11.015 6.51343H7.48691V2.7581C7.48691 2.4867 7.26485 2.26465 6.99345 2.26465C6.72205 2.26465 6.5 2.4867 6.5 2.7581V7.00688C6.5 7.27828 6.72205 7.50034 6.99345 7.50034H11.015C11.2864 7.50034 11.5084 7.27828 11.5084 7.00688C11.5084 6.73548 11.2913 6.51343 11.015 6.51343Z" fill="#B9BCFF"/>
</g>
<defs>
<clipPath id="clip0_1_1769">
<rect width="14" height="14" fill="white"/>
</clipPath>
</defs>
</svg>
